<svg xmlns="http://www.w3.org/2000/svg" xmlns:xlink="http://www.w3.org/1999/xlink" width="57.612" height="15" viewBox="0 0 57.612 15"><defs><clipPath id="a"><path d="M485.039,17.594a2.12,2.12,0,0,1-.294,1.091,2.185,2.185,0,0,1-.793.791,2.209,2.209,0,0,1-2.2,0,2.231,2.231,0,0,1-.795-.791,2.154,2.154,0,0,1,0-2.18,2.24,2.24,0,0,1,.795-.79,2.133,2.133,0,0,1,1.1-.293,2.191,2.191,0,0,1,.854.171,2.237,2.237,0,0,1,.694.455,2.054,2.054,0,0,1,.461.693A2.153,2.153,0,0,1,485.039,17.594Z" transform="translate(-480.663 -15.423)" fill="none"/></clipPath></defs><g transform="translate(-2276.027 112.577)"><g transform="translate(2297.562 -111.656)"><g transform="translate(0 3.861)"><path d="M485.713,18.185V23.2q0,.745-.026,1.233a6.692,6.692,0,0,1-.1.871,3.911,3.911,0,0,1-.189.689,4.223,4.223,0,0,1-.332.663,3.539,3.539,0,0,1-.843.945,3.638,3.638,0,0,1-1.153.6,4.569,4.569,0,0,1-1.4.2,3.973,3.973,0,0,1-1.706-.351V24.986a2.228,2.228,0,0,0,.679.119.949.949,0,0,0,.59-.147.929.929,0,0,0,.26-.573,8.41,8.41,0,0,0,.071-1.267V18.185l.092.028a5.673,5.673,0,0,0,2.033.416A4.424,4.424,0,0,0,485.713,18.185Z" transform="translate(-479.971 -18.185)" fill="#00576e"/></g><g transform="translate(7.419 3.681)"><path d="M489.632,23.166a1.385,1.385,0,0,1-1,.374,1.269,1.269,0,0,1-.935-.405,1.429,1.429,0,0,1-.005-1.967,1.4,1.4,0,0,1,1.02-.379,1.229,1.229,0,0,1,.949.39,1.46,1.46,0,0,1,.36,1.03A1.276,1.276,0,0,1,489.632,23.166Zm3.124-2.568a3.886,3.886,0,0,0-.893-1.344,3.964,3.964,0,0,0-1.373-.871,4.877,4.877,0,0,0-1.735-.3,5.432,5.432,0,0,0-1.822.293,4.168,4.168,0,0,0-1.422.828,3.821,3.821,0,0,0-.925,1.278,3.964,3.964,0,0,0-.331,1.622,4.544,4.544,0,0,0,.538,2.228,3.748,3.748,0,0,0,1.517,1.515,4.58,4.58,0,0,0,2.235.535,5.8,5.8,0,0,0,1.872-.287,4.12,4.12,0,0,0,1.434-.828,3.526,3.526,0,0,0,.907-1.293,4.358,4.358,0,0,0,.312-1.683A4.429,4.429,0,0,0,492.756,20.6Z" transform="translate(-484.256 -18.081)" fill="#00576e"/></g><g transform="translate(17.651)"><path d="M493.919,22.642a2.274,2.274,0,0,1,.985-.26,1.254,1.254,0,0,1,.99.4,1.58,1.58,0,0,1,.357,1.082,1.737,1.737,0,0,1-.206.913,1.149,1.149,0,0,1-.679.478,4.713,4.713,0,0,1-1.325.144h-.123Zm-3.754-6.687V27.823h3.357c.753,0,1.3-.007,1.638-.014s.625-.028.861-.052.462-.059.687-.1a3.706,3.706,0,0,0,1.607-.722,3.9,3.9,0,0,0,1.129-1.387,3.959,3.959,0,0,0,.41-1.761,4.341,4.341,0,0,0-.294-1.617,3.9,3.9,0,0,0-.828-1.281,3.7,3.7,0,0,0-1.273-.848,4.218,4.218,0,0,0-1.6-.3,4.491,4.491,0,0,0-1.555.313V15.955Z" transform="translate(-490.165 -15.955)" fill="#00576e"/></g><g transform="translate(28.005 3.681)"><path d="M496.145,25.48l.926-2.254a3.066,3.066,0,0,0,.639.648,3.032,3.032,0,0,0,.767.419,2.306,2.306,0,0,0,.8.154.982.982,0,0,0,.6-.158.5.5,0,0,0,.215-.428c0-.308-.225-.535-.686-.682l-.952-.284a3.118,3.118,0,0,1-1.512-.919,2.209,2.209,0,0,1-.523-1.475,1.961,1.961,0,0,1,.533-1.328,2.746,2.746,0,0,1,1.382-.829,8.076,8.076,0,0,1,2.19-.261,9.389,9.389,0,0,1,1.842.178,7.087,7.087,0,0,1,1.621.513l-.992,2.052a3.731,3.731,0,0,0-.949-.648,2.255,2.255,0,0,0-.933-.225.88.88,0,0,0-.5.128.393.393,0,0,0-.192.343.542.542,0,0,0,.263.483,3.725,3.725,0,0,0,1.018.357,6.653,6.653,0,0,1,1.018.31,2.794,2.794,0,0,1,.677.384,1.96,1.96,0,0,1,.476.547,2.279,2.279,0,0,1,.343,1.236,2.305,2.305,0,0,1-.255,1.082,2.452,2.452,0,0,1-.751.835,3.718,3.718,0,0,1-1.179.538,5.785,5.785,0,0,1-1.508.185,9.883,9.883,0,0,1-1.382-.106,13.92,13.92,0,0,1-1.544-.317A11.914,11.914,0,0,1,496.145,25.48Z" transform="translate(-496.145 -18.081)" fill="#00576e"/></g></g><g transform="translate(2298.76 -112.577)"><g clip-path="url(#a)"><g transform="translate(0 0)"><rect width="4.375" height="4.345" fill="#1c549e"/></g><g transform="translate(-0.206 -0.371)"><path d="M484.274,19.344a2.971,2.971,0,0,1-3.238.39,2.815,2.815,0,0,1-.492-.308h.142v-3.91H484.6v-.306a2.923,2.923,0,0,1-.329,4.135Z" transform="translate(-480.544 -15.209)" fill="#1c549e"/></g><g transform="translate(-0.199 -0.364)"><path d="M484.264,19.332a2.942,2.942,0,0,1-2.142.691,2.991,2.991,0,0,1-1.086-.3,2.882,2.882,0,0,1-.488-.306h.135v-3.9h3.91v-.3a2.912,2.912,0,0,1-.329,4.119Z" transform="translate(-480.548 -15.213)" fill="#1c549e"/></g><g transform="translate(-0.194 -0.357)"><path d="M484.255,19.322a2.944,2.944,0,0,1-3.7.081h.13V15.51h3.9v-.293A2.9,2.9,0,0,1,484.255,19.322Z" transform="translate(-480.551 -15.217)" fill="#1c549e"/></g><g transform="translate(-0.187 -0.35)"><path d="M484.245,19.311a2.919,2.919,0,0,1-2.126.686,2.961,2.961,0,0,1-1.079-.3,3.031,3.031,0,0,1-.485-.3h.123V15.507h3.894v-.286A2.888,2.888,0,0,1,484.245,19.311Z" transform="translate(-480.555 -15.221)" fill="#1b549e"/></g><g transform="translate(-0.18 -0.343)"><path d="M484.235,19.3a2.933,2.933,0,0,1-3.193.386,2.828,2.828,0,0,1-.483-.3h.116V15.5h3.886v-.279A2.878,2.878,0,0,1,484.235,19.3Z" transform="translate(-480.559 -15.225)" fill="#1d549e"/></g><g transform="translate(-0.175 -0.338)"><path d="M484.228,19.292a2.921,2.921,0,0,1-3.182.383,2.717,2.717,0,0,1-.483-.3h.111V15.5h3.879v-.274A2.872,2.872,0,0,1,484.228,19.292Z" transform="translate(-480.562 -15.228)" fill="#1c559f"/></g><g transform="translate(-0.168 -0.331)"><path d="M484.218,19.28a2.9,2.9,0,0,1-3.172.383,2.853,2.853,0,0,1-.48-.3h.1V15.5h3.872v-.267A2.86,2.86,0,0,1,484.218,19.28Z" transform="translate(-480.566 -15.232)" fill="#1c559f"/></g><g transform="translate(-0.163 -0.324)"><path d="M484.209,19.27a2.9,2.9,0,0,1-3.16.381,2.782,2.782,0,0,1-.48-.3h.1V15.5h3.863v-.26A2.849,2.849,0,0,1,484.209,19.27Z" transform="translate(-480.569 -15.236)" fill="#1d569f"/></g><g transform="translate(-0.156 -0.317)"><path d="M484.2,19.261a2.884,2.884,0,0,1-3.626.08h.092V15.493h3.856V15.24A2.839,2.839,0,0,1,484.2,19.261Z" transform="translate(-480.573 -15.24)" fill="#1d569f"/></g><g transform="translate(-0.149 -0.31)"><path d="M484.189,19.249a2.875,2.875,0,0,1-3.137.377,2.723,2.723,0,0,1-.474-.3h.085V15.49h3.847v-.246A2.828,2.828,0,0,1,484.189,19.249Z" transform="translate(-480.577 -15.244)" fill="#1f569f"/></g><g transform="translate(-0.144 -0.305)"><path d="M484.182,19.238a2.858,2.858,0,0,1-3.127.377,2.71,2.71,0,0,1-.474-.3h.08V15.488h3.84v-.241A2.819,2.819,0,0,1,484.182,19.238Z" transform="translate(-480.58 -15.247)" fill="#1e57a0"/></g><g transform="translate(-0.137 -0.298)"><path d="M484.172,19.228a2.845,2.845,0,0,1-2.067.667,2.88,2.88,0,0,1-1.049-.291,2.75,2.75,0,0,1-.471-.3h.073V15.485h3.832v-.234A2.808,2.808,0,0,1,484.172,19.228Z" transform="translate(-480.584 -15.251)" fill="#1e57a0"/></g><g transform="translate(-0.132 -0.291)"><path d="M484.162,19.218a2.849,2.849,0,0,1-3.576.08h.068V15.482h3.825v-.227A2.8,2.8,0,0,1,484.162,19.218Z" transform="translate(-480.587 -15.255)" fill="#1f57a0"/></g><g transform="translate(-0.125 -0.286)"><path d="M484.153,19.208a2.831,2.831,0,0,1-3.562.08h.061V15.48h3.818v-.222A2.789,2.789,0,0,1,484.153,19.208Z" transform="translate(-480.591 -15.258)" fill="#1e58a0"/></g><g transform="translate(-0.119 -0.279)"><path d="M484.144,19.2a2.833,2.833,0,0,1-3.082.372,2.892,2.892,0,0,1-.468-.294h.055v-3.8h3.809v-.215A2.779,2.779,0,0,1,484.144,19.2Z" transform="translate(-480.594 -15.262)" fill="#2158a0"/></g><g transform="translate(-0.113 -0.272)"><path d="M484.135,19.188a2.822,2.822,0,0,1-3.537.078h.049V15.474h3.8v-.208A2.771,2.771,0,0,1,484.135,19.188Z" transform="translate(-480.598 -15.266)" fill="#2058a1"/></g><g transform="translate(-0.514 -0.265)"><path d="M484.3,19.176a2.8,2.8,0,0,1-3.932-.31h.45v-3.4h3.794v-.2A2.757,2.757,0,0,1,484.3,19.176Z" transform="translate(-480.366 -15.27)" fill="#2159a1"/></g><g transform="translate(-0.506 -0.26)"><path d="M484.288,19.167a2.791,2.791,0,0,1-3.917-.31h.442V15.469H484.6v-.2A2.752,2.752,0,0,1,484.288,19.167Z" transform="translate(-480.371 -15.273)" fill="#2059a1"/></g><g transform="translate(-0.499 -0.253)"><path d="M484.278,19.156a2.78,2.78,0,0,1-3.9-.306h.435V15.466h3.778v-.189A2.739,2.739,0,0,1,484.278,19.156Z" transform="translate(-480.375 -15.277)" fill="#2359a1"/></g><g transform="translate(-0.492 -0.246)"><path d="M484.27,19.146a2.774,2.774,0,0,1-3.891-.306h.428V15.463h3.771v-.182A2.73,2.73,0,0,1,484.27,19.146Z" transform="translate(-480.379 -15.281)" fill="#225aa2"/></g><g transform="translate(-0.483 -0.239)"><path d="M484.259,19.136a2.761,2.761,0,0,1-3.875-.306h.419V15.46h3.763v-.175A2.72,2.72,0,0,1,484.259,19.136Z" transform="translate(-480.384 -15.285)" fill="#235aa2"/></g><g transform="translate(-0.474 -0.234)"><path d="M484.248,19.125a2.749,2.749,0,0,1-3.86-.3h.41V15.458h3.756v-.17A2.711,2.711,0,0,1,484.248,19.125Z" transform="translate(-480.389 -15.288)" fill="#225ba2"/></g><g transform="translate(-0.467 -0.227)"><path d="M484.239,19.115a2.74,2.74,0,0,1-3.846-.3h.4V15.455h3.749v-.163A2.7,2.7,0,0,1,484.239,19.115Z" transform="translate(-480.393 -15.292)" fill="#245ba2"/></g><g transform="translate(-0.461 -0.22)"><path d="M484.229,19.1a2.731,2.731,0,0,1-3.832-.3h.4v-3.35h3.74V15.3A2.688,2.688,0,0,1,484.229,19.1Z" transform="translate(-480.397 -15.296)" fill="#245ba3"/></g><g transform="translate(-0.452 -0.213)"><path d="M484.22,19.094a2.72,2.72,0,0,1-3.818-.3h.388V15.449h3.733V15.3A2.68,2.68,0,0,1,484.22,19.094Z" transform="translate(-480.402 -15.3)" fill="#255ca3"/></g><g transform="translate(-0.445 -0.206)"><path d="M484.21,19.082a2.71,2.71,0,0,1-3.8-.3h.381V15.446h3.724V15.3A2.666,2.666,0,0,1,484.21,19.082Z" transform="translate(-480.406 -15.304)" fill="#245ca3"/></g><g transform="translate(-0.436 -0.201)"><path d="M484.2,19.073a2.7,2.7,0,0,1-3.789-.3h.372V15.444H484.5v-.137A2.661,2.661,0,0,1,484.2,19.073Z" transform="translate(-480.411 -15.307)" fill="#265ca3"/></g><g transform="translate(-0.429 -0.194)"><path d="M484.191,19.063a2.691,2.691,0,0,1-3.776-.3h.365V15.441h3.709v-.13A2.65,2.65,0,0,1,484.191,19.063Z" transform="translate(-480.415 -15.311)" fill="#255da4"/></g><g transform="translate(-0.422 -0.187)"><path d="M484.18,19.052a2.679,2.679,0,0,1-3.761-.3h.358V15.438h3.7v-.123A2.638,2.638,0,0,1,484.18,19.052Z" transform="translate(-480.419 -15.315)" fill="#275ea4"/></g><g transform="translate(-0.414 -0.18)"><path d="M484.171,19.042a2.671,2.671,0,0,1-3.747-.3h.35V15.435h3.693v-.116A2.627,2.627,0,0,1,484.171,19.042Z" transform="translate(-480.424 -15.319)" fill="#265ea4"/></g><g transform="translate(-0.405 -0.175)"><path d="M484.161,19.031a2.658,2.658,0,0,1-3.731-.293h.341V15.433h3.686v-.111A2.618,2.618,0,0,1,484.161,19.031Z" transform="translate(-480.429 -15.322)" fill="#275fa5"/></g><g transform="translate(-0.398 -0.168)"><path d="M484.15,19.021a2.647,2.647,0,0,1-3.718-.293h.334v-3.3h3.679v-.1A2.611,2.611,0,0,1,484.15,19.021Z" transform="translate(-480.433 -15.326)" fill="#275fa5"/></g><g transform="translate(-0.391 -0.161)"><path d="M484.141,19.011a2.64,2.64,0,0,1-3.7-.293h.327V15.427h3.671v-.1A2.6,2.6,0,0,1,484.141,19.011Z" transform="translate(-480.437 -15.33)" fill="#285fa5"/></g><g transform="translate(-0.384 -0.154)"><path d="M484.132,19a2.632,2.632,0,0,1-3.692-.291h.32V15.424h3.664v-.09A2.59,2.59,0,0,1,484.132,19Z" transform="translate(-480.441 -15.334)" fill="#2960a5"/></g><g transform="translate(-0.376 -0.147)"><path d="M484.122,18.988a2.617,2.617,0,0,1-3.676-.289h.312V15.421h3.655v-.083A2.576,2.576,0,0,1,484.122,18.988Z" transform="translate(-480.446 -15.338)" fill="#2960a6"/></g><g transform="translate(-0.369 -0.142)"><path d="M484.112,18.979a2.609,2.609,0,0,1-3.662-.289h.3V15.419H484.4v-.078A2.569,2.569,0,0,1,484.112,18.979Z" transform="translate(-480.45 -15.341)" fill="#2a61a6"/></g><g transform="translate(-0.36 -0.135)"><path d="M484.1,18.969a2.6,2.6,0,0,1-3.647-.287h.3V15.416h3.64v-.071A2.558,2.558,0,0,1,484.1,18.969Z" transform="translate(-480.455 -15.345)" fill="#2961a6"/></g><g transform="translate(-0.426 -0.416)"><path d="M484.122,19.081a2.59,2.59,0,0,1-3.633-.287h.289V15.559h-.362a2.555,2.555,0,0,1,.362-.376v.351h3.633V15.47A2.548,2.548,0,0,1,484.122,19.081Z" transform="translate(-480.417 -15.183)" fill="#2b61a6"/></g><g transform="translate(-0.417 -0.407)"><path d="M484.114,19.068a2.578,2.578,0,0,1-3.619-.286h.281V15.56h-.353a2.514,2.514,0,0,1,.36-.372v.343H484.4v-.059A2.539,2.539,0,0,1,484.114,19.068Z" transform="translate(-480.422 -15.188)" fill="#2a62a6"/></g><g transform="translate(-0.409 -0.4)"><path d="M484.1,19.058a2.569,2.569,0,0,1-3.605-.286h.274V15.564h-.345a2.577,2.577,0,0,1,.357-.372v.336h3.6v-.052A2.531,2.531,0,0,1,484.1,19.058Z" transform="translate(-480.427 -15.192)" fill="#2b62a7"/></g><g transform="translate(-0.402 -0.391)"><path d="M484.093,19.046a2.557,2.557,0,0,1-3.589-.282h.265v-3.2h-.338a2.555,2.555,0,0,1,.357-.369v.327h3.589v-.045A2.517,2.517,0,0,1,484.093,19.046Z" transform="translate(-480.431 -15.197)" fill="#2c63a7"/></g><g transform="translate(-0.393 -0.384)"><path d="M484.083,19.036a2.548,2.548,0,0,1-3.576-.282h.258V15.57h-.329a2.456,2.456,0,0,1,.355-.369v.32h3.576v-.038A2.509,2.509,0,0,1,484.083,19.036Z" transform="translate(-480.436 -15.201)" fill="#2c63a7"/></g><g transform="translate(-0.386 -0.377)"><path d="M484.073,19.026a2.537,2.537,0,0,1-3.56-.282h.249v-3.17h-.322a2.459,2.459,0,0,1,.355-.369v.313h3.562v-.033A2.5,2.5,0,0,1,484.073,19.026Z" transform="translate(-480.44 -15.205)" fill="#2d64a8"/></g><g transform="translate(-0.377 -0.371)"><path d="M484.064,19.015a2.527,2.527,0,0,1-3.548-.281h.242V15.576h-.313a2.434,2.434,0,0,1,.353-.367v.306h3.546V15.49A2.49,2.49,0,0,1,484.064,19.015Z" transform="translate(-480.445 -15.209)" fill="#2c64a8"/></g><g transform="translate(-0.369 -0.362)"><path d="M484.053,19a2.52,2.52,0,0,1-3.534-.279h.236V15.578h-.3a2.554,2.554,0,0,1,.35-.364v.3h3.534v-.019A2.48,2.48,0,0,1,484.053,19Z" transform="translate(-480.45 -15.214)" fill="#2d65a8"/></g><g transform="translate(-0.362 -0.353)"><path d="M484.043,18.992a2.505,2.505,0,0,1-3.518-.277h.227V15.581h-.3a2.455,2.455,0,0,1,.35-.362v.289h3.52V15.5A2.469,2.469,0,0,1,484.043,18.992Z" transform="translate(-480.454 -15.219)" fill="#2f65a9"/></g><g transform="translate(-0.353 -0.346)"><path d="M484.033,18.982a2.5,2.5,0,0,1-3.5-.277h.22V15.583h-.289a2.522,2.522,0,0,1,.348-.36v.282h3.5V15.5A2.459,2.459,0,0,1,484.033,18.982Z" transform="translate(-480.459 -15.223)" fill="#2e65a9"/></g><g transform="translate(-0.345 -0.409)"><path d="M484.024,19a2.484,2.484,0,0,1-3.491-.275h.211V15.616h-.281a2.512,2.512,0,0,1,.346-.36v.275h3.127v-.345a2.534,2.534,0,0,1,.364.346A2.449,2.449,0,0,1,484.024,19Z" transform="translate(-480.464 -15.187)" fill="#2f66a9"/></g><g transform="translate(-0.338 -0.4)"><path d="M484.014,18.989a2.479,2.479,0,0,1-3.477-.274h.2v-3.1h-.274a2.414,2.414,0,0,1,.346-.358v.267h3.115v-.336a2.584,2.584,0,0,1,.36.343A2.441,2.441,0,0,1,484.014,18.989Z" transform="translate(-480.468 -15.192)" fill="#2f66aa"/></g><g transform="translate(-0.329 -0.391)"><path d="M484,18.979a2.466,2.466,0,0,1-3.461-.274h.2V15.621h-.265a2.561,2.561,0,0,1,.343-.357v.26h3.1V15.2a2.472,2.472,0,0,1,.36.341A2.43,2.43,0,0,1,484,18.979Z" transform="translate(-480.473 -15.197)" fill="#3067aa"/></g><g transform="translate(-0.322 -0.384)"><path d="M484,18.967a2.458,2.458,0,0,1-3.449-.272h.189v-3.07h-.258a2.456,2.456,0,0,1,.343-.355v.251h3.091V15.2a2.36,2.36,0,0,1,.357.341A2.418,2.418,0,0,1,484,18.967Z" transform="translate(-480.477 -15.201)" fill="#3167aa"/></g><g transform="translate(-0.313 -0.377)"><path d="M483.983,18.957a2.443,2.443,0,0,1-3.432-.272h.18V15.629h-.249a2.275,2.275,0,0,1,.341-.355v.244H483.9v-.313a2.529,2.529,0,0,1,.357.339A2.411,2.411,0,0,1,483.983,18.957Z" transform="translate(-480.482 -15.205)" fill="#3168ab"/></g><g transform="translate(-0.306 -0.369)"><path d="M483.975,18.945a2.436,2.436,0,0,1-3.42-.27h.173V15.631h-.242a2.428,2.428,0,0,1,.341-.353v.237h3.065v-.3a2.5,2.5,0,0,1,.353.338A2.4,2.4,0,0,1,483.975,18.945Z" transform="translate(-480.486 -15.21)" fill="#3268ab"/></g><g transform="translate(-0.298 -0.36)"><path d="M483.964,18.934a2.427,2.427,0,0,1-3.406-.268h.166V15.632h-.234a2.469,2.469,0,0,1,.338-.35v.229h3.053v-.3a2.393,2.393,0,0,1,.083,3.719Z" transform="translate(-480.491 -15.215)" fill="#3169ab"/></g><g transform="translate(-0.291 -0.353)"><path d="M483.955,18.924a2.416,2.416,0,0,1-3.39-.268h.158v-3.02H480.5a2.574,2.574,0,0,1,.338-.35v.222h3.039v-.289a2.482,2.482,0,0,1,.353.336A2.381,2.381,0,0,1,483.955,18.924Z" transform="translate(-480.495 -15.219)" fill="#3269ac"/></g><g transform="translate(-0.282 -0.345)"><path d="M483.944,18.912a2.4,2.4,0,0,1-3.376-.267h.151V15.64H480.5a2.361,2.361,0,0,1,.336-.348V15.5h3.027v-.281a2.43,2.43,0,0,1,.35.332A2.368,2.368,0,0,1,483.944,18.912Z" transform="translate(-480.5 -15.224)" fill="#336aac"/></g><g transform="translate(-0.274 -0.338)"><path d="M483.933,18.9a2.4,2.4,0,0,1-3.361-.265h.142v-3h-.21a2.33,2.33,0,0,1,.334-.346V15.5h3.013v-.274a2.527,2.527,0,0,1,.35.332A2.361,2.361,0,0,1,483.933,18.9Z" transform="translate(-480.505 -15.228)" fill="#336aac"/></g><g transform="translate(-0.516 -0.329)"><path d="M484.031,18.89a2.385,2.385,0,0,1-3.349-.263h.135v-2.59h-.452a2.365,2.365,0,0,1,.584-.736v.2h3v-.265a2.3,2.3,0,0,1,.346.331A2.348,2.348,0,0,1,484.031,18.89Z" transform="translate(-480.365 -15.233)" fill="#356bad"/></g><g transform="translate(-0.506 -0.32)"><path d="M484.019,18.879a2.375,2.375,0,0,1-3.333-.263h.126V16.038h-.442a2.321,2.321,0,0,1,.578-.734v.19h2.989v-.256a2.289,2.289,0,0,1,.346.329A2.34,2.34,0,0,1,484.019,18.879Z" transform="translate(-480.371 -15.238)" fill="#366bad"/></g><g transform="translate(-0.497 -0.313)"><path d="M484.009,18.868a2.363,2.363,0,0,1-3.319-.261h.119V16.04h-.433a2.327,2.327,0,0,1,.577-.732v.184h2.976v-.249a2.353,2.353,0,0,1,.343.327A2.329,2.329,0,0,1,484.009,18.868Z" transform="translate(-480.376 -15.242)" fill="#356cad"/></g><g transform="translate(-0.488 -0.305)"><path d="M484,18.857a2.356,2.356,0,0,1-3.305-.26h.113V16.04h-.424a2.328,2.328,0,0,1,.575-.727v.175h2.963v-.241a2.431,2.431,0,0,1,.343.326A2.32,2.32,0,0,1,484,18.857Z" transform="translate(-480.381 -15.247)" fill="#366cae"/></g><g transform="translate(-0.48 -0.298)"><path d="M483.989,18.847a2.345,2.345,0,0,1-3.292-.26h.1V16.042h-.416a2.317,2.317,0,0,1,.573-.726v.168h2.949v-.234a2.432,2.432,0,0,1,.343.326A2.312,2.312,0,0,1,483.989,18.847Z" transform="translate(-480.386 -15.251)" fill="#376dae"/></g><g transform="translate(-0.471 -0.289)"><path d="M483.979,18.835a2.335,2.335,0,0,1-3.278-.258h.1V16.042h-.407a2.317,2.317,0,0,1,.571-.72v.159H483.9v-.225a2.306,2.306,0,0,1,.08,3.579Z" transform="translate(-480.391 -15.256)" fill="#376dae"/></g><g transform="translate(-0.461 -0.282)"><path d="M483.968,18.825a2.324,2.324,0,0,1-3.262-.258h.088V16.044h-.4a2.288,2.288,0,0,1,.566-.719v.152h2.924V15.26a2.476,2.476,0,0,1,.339.322A2.29,2.29,0,0,1,483.968,18.825Z" transform="translate(-480.397 -15.26)" fill="#386eaf"/></g><g transform="translate(-0.452 -0.514)"><path d="M483.957,18.915a2.313,2.313,0,0,1-3.248-.255h.081V16.146H480.4a2.288,2.288,0,0,1,.564-.715v.145h2.53v-.45a2.286,2.286,0,0,1,.461,3.789Z" transform="translate(-480.402 -15.126)" fill="#396faf"/></g><g transform="translate(-0.443 -0.506)"><path d="M483.946,18.9a2.3,2.3,0,0,1-3.233-.255h.073v-2.5h-.379a2.274,2.274,0,0,1,.563-.712v.137h2.518v-.442a2.309,2.309,0,0,1,.717.559A2.269,2.269,0,0,1,483.946,18.9Z" transform="translate(-480.407 -15.131)" fill="#386faf"/></g><g transform="translate(-0.435 -0.497)"><path d="M483.937,18.892a2.294,2.294,0,0,1-3.221-.253h.066V16.147h-.371a2.257,2.257,0,0,1,.561-.708v.13h2.506v-.433a2.316,2.316,0,0,1,.715.558A2.259,2.259,0,0,1,483.937,18.892Z" transform="translate(-480.412 -15.136)" fill="#3970b0"/></g><g transform="translate(-0.426 -0.487)"><path d="M483.927,18.88a2.282,2.282,0,0,1-3.205-.253h.057v-2.48h-.362a2.288,2.288,0,0,1,.558-.706v.123h2.5v-.422a2.256,2.256,0,0,1,.455,3.738Z" transform="translate(-480.417 -15.142)" fill="#3970b0"/></g><g transform="translate(-0.416 -0.478)"><path d="M483.916,18.87a2.274,2.274,0,0,1-3.191-.253h.05V16.15h-.352a2.239,2.239,0,0,1,.554-.7v.114h2.485v-.414a2.246,2.246,0,0,1,.454,3.723Z" transform="translate(-480.423 -15.147)" fill="#3a71b0"/></g><g transform="translate(-0.407 -0.469)"><path d="M483.905,18.859a2.265,2.265,0,0,1-3.177-.251h.043V16.149h-.343a2.239,2.239,0,0,1,.552-.7v.107h2.473v-.405a2.235,2.235,0,0,1,.452,3.707Z" transform="translate(-480.428 -15.152)" fill="#3b71b1"/></g><g transform="translate(-0.398 -0.461)"><path d="M483.9,18.847a2.255,2.255,0,0,1-3.163-.249h.035V16.151h-.334a2.221,2.221,0,0,1,.551-.7v.1h2.462v-.4a2.229,2.229,0,0,1,.45,3.69Z" transform="translate(-480.433 -15.157)" fill="#3a72b1"/></g><g transform="translate(-0.39 -0.45)"><path d="M483.885,18.836a2.245,2.245,0,0,1-3.15-.249h.028V16.152h-.326a2.209,2.209,0,0,1,.547-.694v.092h2.452v-.386a2.213,2.213,0,0,1,.448,3.673Z" transform="translate(-480.438 -15.163)" fill="#3b72b1"/></g><g transform="translate(-0.379 -0.443)"><path d="M483.874,18.824a2.23,2.23,0,0,1-3.134-.248h.019V16.152h-.315a2.172,2.172,0,0,1,.544-.689v.083h2.441v-.379a2.211,2.211,0,0,1,.445,3.657Z" transform="translate(-480.444 -15.167)" fill="#3c73b2"/></g><g transform="translate(-0.371 -0.433)"><path d="M483.864,18.813a2.223,2.223,0,0,1-3.12-.246h.012V16.153h-.306a2.186,2.186,0,0,1,.542-.687v.076h2.429v-.369a2.238,2.238,0,0,1,.693.538A2.192,2.192,0,0,1,483.864,18.813Z" transform="translate(-480.449 -15.173)" fill="#3c73b2"/></g><g transform="translate(-0.362 -0.424)"><path d="M483.853,18.8a2.214,2.214,0,0,1-3.106-.244h.005v-2.4h-.3a2.206,2.206,0,0,1,.54-.684v.069h2.417v-.36a2.184,2.184,0,0,1,.442,3.622Z" transform="translate(-480.454 -15.178)" fill="#3d74b2"/></g><g transform="translate(-0.483 -0.416)"><path d="M483.9,18.79a2.2,2.2,0,0,1-3.091-.244,2.134,2.134,0,0,1-.422-.757h.419V16.154h-.289a2.193,2.193,0,0,1,.538-.68v.061h2.407v-.351a2.177,2.177,0,0,1,.438,3.607Z" transform="translate(-480.384 -15.183)" fill="#3e75b3"/></g><g transform="translate(-0.474 -0.407)"><path d="M483.888,18.779a2.191,2.191,0,0,1-3.077-.244,2.166,2.166,0,0,1-.422-.751h.41V16.156h-.281a2.18,2.18,0,0,1,.535-.679v.054h2.4v-.343a2.183,2.183,0,0,1,.682.533A2.159,2.159,0,0,1,483.888,18.779Z" transform="translate(-480.389 -15.188)" fill="#3f75b3"/></g><g transform="translate(-0.464 -0.397)"><path d="M483.877,18.766a2.181,2.181,0,0,1-3.063-.242,2.143,2.143,0,0,1-.419-.748h.4V16.155h-.27a2.144,2.144,0,0,1,.532-.674v.045h2.386v-.332a2.155,2.155,0,0,1,.435,3.572Z" transform="translate(-480.395 -15.194)" fill="#3e76b3"/></g><g transform="translate(-0.455 -0.39)"><path d="M483.867,18.756a2.167,2.167,0,0,1-3.466-.987h.391V16.157h-.261a2.131,2.131,0,0,1,.53-.672v.038h2.374V15.2a2.189,2.189,0,0,1,.675.528A2.14,2.14,0,0,1,483.867,18.756Z" transform="translate(-480.4 -15.198)" fill="#3f76b4"/></g><g transform="translate(-0.445 -0.379)"><path d="M483.857,18.743a2.162,2.162,0,0,1-3.035-.239,2.128,2.128,0,0,1-.416-.743h.381V16.156h-.253a2.158,2.158,0,0,1,.528-.668v.031h2.362V15.2a2.137,2.137,0,0,1,.433,3.539Z" transform="translate(-480.406 -15.204)" fill="#4077b5"/></g><g transform="translate(-0.435 -0.371)"><path d="M483.845,18.733a2.152,2.152,0,0,1-3.021-.239,2.1,2.1,0,0,1-.412-.738h.371v-1.6h-.244a2.121,2.121,0,0,1,.526-.665v.023h2.35v-.306a2.172,2.172,0,0,1,.67.521A2.12,2.12,0,0,1,483.845,18.733Z" transform="translate(-480.412 -15.209)" fill="#4077b5"/></g><g transform="translate(-0.426 -0.362)"><path d="M483.835,18.722a2.143,2.143,0,0,1-3.006-.237,2.1,2.1,0,0,1-.412-.736h.362v-1.59h-.236a2.127,2.127,0,0,1,.523-.663v.016h2.341v-.3a2.115,2.115,0,0,1,.428,3.508Z" transform="translate(-480.417 -15.214)" fill="#4178b5"/></g><g transform="translate(-0.507 -0.353)"><path d="M483.863,18.71a2.131,2.131,0,0,1-2.992-.235,2.093,2.093,0,0,1-.409-.732h.351v-.8h-.443a2.092,2.092,0,0,1,.738-1.437v.007h2.329v-.289a2.107,2.107,0,0,1,.426,3.491Z" transform="translate(-480.37 -15.219)" fill="#4279b6"/></g><g transform="translate(-0.499 -0.469)"><path d="M483.852,18.752a2.121,2.121,0,0,1-2.976-.235,2.048,2.048,0,0,1-.407-.729h.341v-.8h-.435a2.111,2.111,0,0,1,1.468-1.837v.405h1.586v-.281a2.131,2.131,0,0,1,.66.516A2.09,2.09,0,0,1,483.852,18.752Z" transform="translate(-480.375 -15.152)" fill="#4179b6"/></g><g transform="translate(-0.487 -0.459)"><path d="M483.841,18.739a2.111,2.111,0,0,1-2.964-.234,2.041,2.041,0,0,1-.405-.725h.333v-.795h-.423a2.091,2.091,0,0,1,1.46-1.827v.395h1.577v-.27a2.084,2.084,0,0,1,.422,3.456Z" transform="translate(-480.382 -15.158)" fill="#427ab7"/></g><g transform="translate(-0.478 -0.448)"><path d="M483.831,18.727a2.1,2.1,0,0,1-3.354-.954h.324V16.98h-.414a2.086,2.086,0,0,1,1.454-1.816v.384h1.57v-.261a2.076,2.076,0,0,1,.419,3.44Z" transform="translate(-480.387 -15.164)" fill="#437ab7"/></g><g transform="translate(-0.474 -0.44)"><path d="M483.822,18.715a2.09,2.09,0,0,1-2.935-.23,2.066,2.066,0,0,1,.956-3.316v.376h1.562v-.253a2.064,2.064,0,0,1,.417,3.423Z" transform="translate(-480.389 -15.169)" fill="#437bb7"/></g><g transform="translate(-0.464 -0.429)"><path d="M483.811,18.7a2.081,2.081,0,0,1-2.921-.23,2.057,2.057,0,0,1,.951-3.3v.365H483.4V15.3a2.081,2.081,0,0,1,.648.506A2.049,2.049,0,0,1,483.811,18.7Z" transform="translate(-480.395 -15.175)" fill="#447cb8"/></g><g transform="translate(-0.453 -0.509)"><path d="M483.8,18.729a2.068,2.068,0,0,1-2.905-.229,2.04,2.04,0,0,1,.23-2.888,2.053,2.053,0,0,1,.715-.395v.357h.786v-.445a2.046,2.046,0,0,1,1.174,3.6Z" transform="translate(-480.401 -15.129)" fill="#457cb8"/></g><g transform="translate(-0.444 -0.499)"><path d="M483.789,18.717a2.061,2.061,0,0,1-2.892-.227,2.037,2.037,0,0,1,.942-3.267v.346h.783v-.435a2.049,2.049,0,0,1,1.4.708A2.028,2.028,0,0,1,483.789,18.717Z" transform="translate(-480.407 -15.135)" fill="#467db8"/></g><g transform="translate(-0.434 -0.49)"><path d="M483.779,18.707a2.05,2.05,0,0,1-2.878-.227,2.019,2.019,0,0,1,.227-2.86,2.051,2.051,0,0,1,.71-.391v.338h.777V15.14a2.029,2.029,0,0,1,1.164,3.567Z" transform="translate(-480.413 -15.14)" fill="#457db9"/></g><g transform="translate(-0.424 -0.48)"><path d="M483.768,18.694a2.04,2.04,0,0,1-2.864-.225,2.011,2.011,0,0,1,.227-2.847,2.027,2.027,0,0,1,.706-.388v.327h.772v-.416a2.03,2.03,0,0,1,1.385.7A2.008,2.008,0,0,1,483.768,18.694Z" transform="translate(-480.418 -15.146)" fill="#467eba"/></g><g transform="translate(-0.413 -0.475)"><path d="M483.757,18.685a2.03,2.03,0,0,1-2.85-.225,2,2,0,0,1,.227-2.831,2.031,2.031,0,0,1,2.85.223A2,2,0,0,1,483.757,18.685Z" transform="translate(-480.424 -15.148)" fill="#477fba"/></g><g transform="translate(-0.404 -0.465)"><path d="M483.746,18.674a2.019,2.019,0,0,1-2.834-.225,1.986,1.986,0,0,1,.225-2.817,2,2,0,1,1,2.609,3.042Z" transform="translate(-480.43 -15.154)" fill="#4680ba"/></g><g transform="translate(-0.393 -0.455)"><path d="M483.736,18.661a2.012,2.012,0,0,1-2.822-.222,1.984,1.984,0,0,1,.223-2.8,2.013,2.013,0,0,1,2.822.222A1.979,1.979,0,0,1,483.736,18.661Z" transform="translate(-480.436 -15.16)" fill="#4780bb"/></g><g transform="translate(-0.384 -0.446)"><path d="M483.725,18.65a2,2,0,0,1-2.807-.222,1.969,1.969,0,0,1,.222-2.789,2,2,0,0,1,2.809.222A1.971,1.971,0,0,1,483.725,18.65Z" transform="translate(-480.441 -15.165)" fill="#4880bb"/></g><g transform="translate(-0.373 -0.436)"><path d="M483.714,18.637a1.989,1.989,0,0,1-2.793-.22,1.958,1.958,0,0,1,.222-2.774,1.988,1.988,0,0,1,2.793.22A1.958,1.958,0,0,1,483.714,18.637Z" transform="translate(-480.447 -15.171)" fill="#4981bc"/></g><g transform="translate(-0.363 -0.425)"><path d="M483.7,18.626a1.982,1.982,0,0,1-2.781-.22,1.95,1.95,0,0,1,.222-2.76,1.979,1.979,0,0,1,2.777.218A1.949,1.949,0,0,1,483.7,18.626Z" transform="translate(-480.453 -15.177)" fill="#4981bc"/></g><g transform="translate(-0.353 -0.415)"><path d="M483.693,18.613a1.969,1.969,0,0,1-2.765-.216,1.956,1.956,0,1,1,2.765.216Z" transform="translate(-480.459 -15.183)" fill="#4a82bc"/></g><g transform="translate(-0.342 -0.406)"><path d="M483.682,18.6a1.958,1.958,0,0,1-2.75-.216,1.933,1.933,0,0,1,.216-2.734,1.96,1.96,0,0,1,2.751.218A1.93,1.93,0,0,1,483.682,18.6Z" transform="translate(-480.466 -15.188)" fill="#4b82bd"/></g><g transform="translate(-0.333 -0.395)"><path d="M483.671,18.591a1.949,1.949,0,0,1-2.736-.216,1.919,1.919,0,0,1,.216-2.718,1.947,1.947,0,0,1,2.736.216A1.919,1.919,0,0,1,483.671,18.591Z" transform="translate(-480.471 -15.195)" fill="#4a83bd"/></g><g transform="translate(-0.323 -0.385)"><path d="M483.66,18.578a1.939,1.939,0,0,1-2.722-.215,1.911,1.911,0,0,1,.216-2.7,1.941,1.941,0,0,1,2.722.215A1.91,1.91,0,0,1,483.66,18.578Z" transform="translate(-480.477 -15.201)" fill="#4b84be"/></g><g transform="translate(-0.312 -0.376)"><path d="M483.65,18.567a1.93,1.93,0,0,1-2.708-.213,1.9,1.9,0,0,1,.215-2.691,1.914,1.914,0,1,1,2.493,2.9Z" transform="translate(-480.483 -15.206)" fill="#4c84be"/></g><g transform="translate(-0.302 -0.366)"><path d="M483.639,18.554a1.919,1.919,0,0,1-2.694-.211,1.892,1.892,0,0,1,.215-2.677,1.916,1.916,0,0,1,2.692.213A1.889,1.889,0,0,1,483.639,18.554Z" transform="translate(-480.488 -15.212)" fill="#4d85be"/></g><g transform="translate(-0.292 -0.354)"><path d="M483.628,18.542a1.908,1.908,0,0,1-2.679-.211,1.9,1.9,0,1,1,2.679.211Z" transform="translate(-480.495 -15.218)" fill="#4d86bf"/></g><g transform="translate(-0.282 -0.345)"><path d="M483.617,18.531a1.9,1.9,0,0,1-2.665-.211,1.871,1.871,0,0,1,.211-2.647,1.9,1.9,0,0,1,2.665.211A1.87,1.87,0,0,1,483.617,18.531Z" transform="translate(-480.5 -15.224)" fill="#4d88c1"/></g><g transform="translate(-0.272 -0.335)"><path d="M483.606,18.518a1.889,1.889,0,0,1-2.651-.208,1.863,1.863,0,0,1,.211-2.635,1.891,1.891,0,0,1,2.651.21A1.859,1.859,0,0,1,483.606,18.518Z" transform="translate(-480.506 -15.23)" fill="#4e88c1"/></g><g transform="translate(-0.262 -0.325)"><path d="M483.6,18.507a1.88,1.88,0,0,1-2.637-.208,1.85,1.85,0,0,1,.21-2.62,1.879,1.879,0,0,1,2.635.208A1.85,1.85,0,0,1,483.6,18.507Z" transform="translate(-480.512 -15.236)" fill="#4f89c2"/></g><g transform="translate(-0.252 -0.315)"><path d="M483.585,18.495a1.868,1.868,0,0,1-2.623-.206,1.84,1.84,0,0,1,.21-2.606,1.866,1.866,0,0,1,2.621.208A1.839,1.839,0,0,1,483.585,18.495Z" transform="translate(-480.517 -15.241)" fill="#4f89c2"/></g><g transform="translate(-0.241 -0.305)"><path d="M483.573,18.483a1.857,1.857,0,0,1-2.608-.206,1.844,1.844,0,1,1,2.608.206Z" transform="translate(-480.524 -15.247)" fill="#508ac3"/></g><g transform="translate(-0.231 -0.295)"><path d="M483.562,18.472a1.848,1.848,0,0,1-2.594-.206,1.821,1.821,0,0,1,.206-2.576,1.848,1.848,0,0,1,2.594.2A1.82,1.82,0,0,1,483.562,18.472Z" transform="translate(-480.529 -15.252)" fill="#508bc3"/></g><g transform="translate(-0.222 -0.285)"><path d="M483.551,18.459a1.835,1.835,0,0,1-2.578-.2,1.809,1.809,0,0,1,.2-2.563,1.835,1.835,0,0,1,2.578.2A1.809,1.809,0,0,1,483.551,18.459Z" transform="translate(-480.535 -15.258)" fill="#508bc4"/></g><g transform="translate(-0.212 -0.275)"><path d="M483.542,18.448a1.829,1.829,0,0,1-2.566-.2,1.8,1.8,0,0,1,.2-2.549,1.827,1.827,0,0,1,2.564.2A1.8,1.8,0,0,1,483.542,18.448Z" transform="translate(-480.541 -15.264)" fill="#518cc4"/></g><g transform="translate(-0.202 -0.265)"><path d="M483.531,18.435a1.815,1.815,0,0,1-2.551-.2,1.788,1.788,0,0,1,.2-2.535,1.818,1.818,0,0,1,2.55.2A1.791,1.791,0,0,1,483.531,18.435Z" transform="translate(-480.547 -15.27)" fill="#528dc5"/></g><g transform="translate(-0.191 -0.256)"><path d="M483.519,18.424a1.807,1.807,0,0,1-2.537-.2,1.78,1.78,0,0,1,.2-2.519,1.805,1.805,0,0,1,2.537.2A1.779,1.779,0,0,1,483.519,18.424Z" transform="translate(-480.553 -15.275)" fill="#538ec5"/></g><g transform="translate(-0.181 -0.245)"><path d="M483.508,18.413a1.8,1.8,0,0,1-2.521-.2,1.77,1.77,0,0,1,.2-2.507,1.8,1.8,0,0,1,2.523.2A1.772,1.772,0,0,1,483.508,18.413Z" transform="translate(-480.558 -15.282)" fill="#528fc6"/></g><g transform="translate(-0.172 -0.235)"><path d="M483.5,18.4a1.786,1.786,0,0,1-2.507-.2,1.76,1.76,0,0,1,.2-2.493,1.788,1.788,0,0,1,2.507.2A1.758,1.758,0,0,1,483.5,18.4Z" transform="translate(-480.564 -15.288)" fill="#538fc6"/></g><g transform="translate(-0.162 -0.225)"><path d="M483.488,18.389a1.777,1.777,0,0,1-2.5-.2,1.75,1.75,0,0,1,.2-2.478,1.779,1.779,0,0,1,2.5.2A1.752,1.752,0,0,1,483.488,18.389Z" transform="translate(-480.57 -15.293)" fill="#5490c7"/></g><g transform="translate(-0.151 -0.215)"><path d="M483.476,18.376a1.765,1.765,0,0,1-2.479-.2,1.741,1.741,0,0,1,.2-2.464,1.77,1.77,0,0,1,2.481.2A1.74,1.74,0,0,1,483.476,18.376Z" transform="translate(-480.576 -15.299)" fill="#5591c7"/></g><g transform="translate(-0.141 -0.204)"><path d="M483.465,18.365A1.757,1.757,0,0,1,481,18.171a1.731,1.731,0,0,1,.2-2.45,1.757,1.757,0,0,1,2.466.194A1.729,1.729,0,0,1,483.465,18.365Z" transform="translate(-480.582 -15.305)" fill="#5491c8"/></g><g transform="translate(-0.131 -0.194)"><path d="M483.456,18.353A1.748,1.748,0,0,1,481,18.159a1.718,1.718,0,0,1,.194-2.434,1.747,1.747,0,0,1,2.452.192A1.724,1.724,0,0,1,483.456,18.353Z" transform="translate(-480.587 -15.311)" fill="#5592c8"/></g><g transform="translate(-0.121 -0.184)"><path d="M483.445,18.341a1.736,1.736,0,0,1-2.438-.192,1.708,1.708,0,0,1,.194-2.421,1.734,1.734,0,0,1,2.436.192A1.709,1.709,0,0,1,483.445,18.341Z" transform="translate(-480.593 -15.316)" fill="#5693c8"/></g><g transform="translate(-0.11 -0.174)"><path d="M483.433,18.329a1.729,1.729,0,0,1-2.424-.19,1.7,1.7,0,0,1,.194-2.409,1.726,1.726,0,0,1,2.422.192A1.7,1.7,0,0,1,483.433,18.329Z" transform="translate(-480.6 -15.322)" fill="#5794c9"/></g><g transform="translate(-0.101 -0.165)"><path d="M483.422,18.317a1.715,1.715,0,0,1-2.408-.189,1.692,1.692,0,0,1,.19-2.395,1.719,1.719,0,0,1,2.41.19A1.69,1.69,0,0,1,483.422,18.317Z" transform="translate(-480.605 -15.328)" fill="#5894c9"/></g><g transform="translate(-0.09 -0.154)"><path d="M483.411,18.305a1.708,1.708,0,0,1-2.395-.189,1.681,1.681,0,0,1,.19-2.379,1.708,1.708,0,0,1,2.395.189A1.681,1.681,0,0,1,483.411,18.305Z" transform="translate(-480.611 -15.334)" fill="#5796ca"/></g><g transform="translate(-0.08 -0.144)"><path d="M483.4,18.294a1.7,1.7,0,0,1-2.381-.189,1.671,1.671,0,0,1,.189-2.365,1.7,1.7,0,0,1,2.379.189A1.671,1.671,0,0,1,483.4,18.294Z" transform="translate(-480.617 -15.34)" fill="#5896cb"/></g><g transform="translate(-0.07 -0.134)"><path d="M483.389,18.281a1.685,1.685,0,0,1-2.365-.187,1.661,1.661,0,0,1,.189-2.351,1.688,1.688,0,0,1,2.365.187A1.659,1.659,0,0,1,483.389,18.281Z" transform="translate(-480.622 -15.345)" fill="#5997cb"/></g><g transform="translate(-0.061 -0.124)"><path d="M483.38,18.27a1.676,1.676,0,0,1-2.351-.185,1.65,1.65,0,0,1,.185-2.338,1.676,1.676,0,0,1,2.351.185A1.651,1.651,0,0,1,483.38,18.27Z" transform="translate(-480.628 -15.351)" fill="#5a98cb"/></g><g transform="translate(-0.05 -0.114)"><path d="M483.368,18.257a1.665,1.665,0,0,1-2.338-.184,1.642,1.642,0,0,1,.185-2.324,1.667,1.667,0,0,1,2.338.185A1.64,1.64,0,0,1,483.368,18.257Z" transform="translate(-480.634 -15.357)" fill="#5a98cc"/></g><g transform="translate(-0.04 -0.104)"><path d="M483.357,18.246a1.654,1.654,0,0,1-2.322-.184,1.63,1.63,0,0,1,.184-2.308,1.658,1.658,0,0,1,2.324.182A1.632,1.632,0,0,1,483.357,18.246Z" transform="translate(-480.64 -15.363)" fill="#5b99cc"/></g><g transform="translate(-0.03 -0.095)"><path d="M483.347,18.235a1.647,1.647,0,0,1-2.31-.184,1.619,1.619,0,0,1,.184-2.294,1.645,1.645,0,0,1,2.308.182A1.623,1.623,0,0,1,483.347,18.235Z" transform="translate(-480.646 -15.368)" fill="#5b9acd"/></g><g transform="translate(-0.02 -0.084)"><path d="M483.336,18.222a1.637,1.637,0,0,1-2.3-.18,1.612,1.612,0,0,1,.182-2.28,1.637,1.637,0,0,1,2.3.18A1.61,1.61,0,0,1,483.336,18.222Z" transform="translate(-480.651 -15.374)" fill="#5c9bce"/></g><g transform="translate(-0.009 -0.074)"><path d="M483.325,18.211a1.626,1.626,0,0,1-2.28-.18,1.6,1.6,0,0,1,.182-2.267,1.624,1.624,0,0,1,2.279.18A1.6,1.6,0,0,1,483.325,18.211Z" transform="translate(-480.658 -15.38)" fill="#5c9cce"/></g><g transform="translate(0.001 -0.064)"><path d="M483.314,18.2a1.614,1.614,0,0,1-2.267-.178,1.593,1.593,0,0,1,.18-2.253,1.616,1.616,0,0,1,2.266.18A1.589,1.589,0,0,1,483.314,18.2Z" transform="translate(-480.664 -15.386)" fill="#5d9dce"/></g><g transform="translate(0.01 -0.055)"><path d="M483.3,18.187a1.6,1.6,0,0,1-2.251-.178,1.578,1.578,0,0,1,.178-2.237,1.6,1.6,0,0,1,2.253.177A1.582,1.582,0,0,1,483.3,18.187Z" transform="translate(-480.669 -15.391)" fill="#5d9dcf"/></g><g transform="translate(0.021 -0.044)"><path d="M483.293,18.176A1.6,1.6,0,0,1,481.054,18a1.572,1.572,0,0,1,.178-2.225,1.6,1.6,0,0,1,2.237.177A1.572,1.572,0,0,1,483.293,18.176Z" transform="translate(-480.675 -15.398)" fill="#5e9ed0"/></g><g transform="translate(0.031 -0.034)"><path d="M483.282,18.163a1.583,1.583,0,0,1-2.223-.175,1.56,1.56,0,0,1,.175-2.209,1.585,1.585,0,0,1,2.225.175A1.561,1.561,0,0,1,483.282,18.163Z" transform="translate(-480.681 -15.403)" fill="#5f9fd0"/></g><g transform="translate(0.041 -0.024)"><path d="M483.271,18.152a1.575,1.575,0,0,1-2.209-.175,1.552,1.552,0,0,1,.175-2.2,1.574,1.574,0,0,1,2.209.175A1.55,1.55,0,0,1,483.271,18.152Z" transform="translate(-480.687 -15.409)" fill="#5ea0d1"/></g><g transform="translate(0.05 -0.014)"><path d="M483.26,18.14a1.566,1.566,0,0,1-2.2-.175,1.541,1.541,0,0,1,.175-2.182,1.566,1.566,0,0,1,2.2.175A1.541,1.541,0,0,1,483.26,18.14Z" transform="translate(-480.692 -15.415)" fill="#5fa1d2"/></g><g transform="translate(0.062 -0.004)"><path d="M483.25,18.128a1.555,1.555,0,0,1-2.182-.173,1.53,1.53,0,0,1,.173-2.166,1.553,1.553,0,0,1,2.18.171A1.532,1.532,0,0,1,483.25,18.128Z" transform="translate(-480.699 -15.421)" fill="#60a2d2"/></g><g transform="translate(0.071 0.005)"><path d="M483.239,18.117a1.546,1.546,0,0,1-2.168-.171,1.522,1.522,0,0,1,.173-2.154,1.543,1.543,0,0,1,2.166.171A1.522,1.522,0,0,1,483.239,18.117Z" transform="translate(-480.704 -15.426)" fill="#61a2d3"/></g><g transform="translate(0.082 0.016)"><path d="M483.228,18.1a1.534,1.534,0,0,1-2.152-.17,1.509,1.509,0,0,1,.171-2.138,1.534,1.534,0,0,1,2.152.17A1.511,1.511,0,0,1,483.228,18.1Z" transform="translate(-480.71 -15.432)" fill="#61a3d3"/></g><g transform="translate(0.091 0.026)"><path d="M483.217,18.092a1.525,1.525,0,0,1-2.138-.17,1.5,1.5,0,0,1,.17-2.125,1.525,1.525,0,0,1,2.138.168A1.5,1.5,0,0,1,483.217,18.092Z" transform="translate(-480.716 -15.438)" fill="#62a4d4"/></g><g transform="translate(0.101 0.036)"><path d="M483.205,18.079a1.511,1.511,0,0,1-2.123-.168,1.488,1.488,0,0,1,.168-2.109,1.51,1.51,0,0,1,2.123.168A1.486,1.486,0,0,1,483.205,18.079Z" transform="translate(-480.722 -15.444)" fill="#62a5d4"/></g><g transform="translate(0.112 0.046)"><path d="M483.2,18.068a1.505,1.505,0,0,1-2.111-.166,1.483,1.483,0,0,1,.168-2.1,1.5,1.5,0,0,1,2.109.166A1.481,1.481,0,0,1,483.2,18.068Z" transform="translate(-480.728 -15.449)" fill="#63a6d5"/></g><g transform="translate(0.122 0.056)"><path d="M483.183,18.055a1.491,1.491,0,0,1-2.093-.164,1.472,1.472,0,0,1,.164-2.083,1.493,1.493,0,0,1,2.1.166A1.467,1.467,0,0,1,483.183,18.055Z" transform="translate(-480.733 -15.455)" fill="#64a7d5"/></g><g transform="translate(0.131 0.066)"><path d="M483.174,18.044a1.482,1.482,0,0,1-2.081-.164,1.459,1.459,0,0,1,.164-2.067,1.484,1.484,0,0,1,2.081.163A1.461,1.461,0,0,1,483.174,18.044Z" transform="translate(-480.739 -15.461)" fill="#64a7d6"/></g><g transform="translate(0.142 0.076)"><path d="M483.162,18.033a1.471,1.471,0,0,1-2.066-.164,1.449,1.449,0,0,1,.163-2.054,1.475,1.475,0,0,1,2.067.163A1.453,1.453,0,0,1,483.162,18.033Z" transform="translate(-480.745 -15.467)" fill="#65a8d6"/></g><g transform="translate(0.152 0.086)"><path d="M483.151,18.02a1.459,1.459,0,0,1-2.052-.163,1.44,1.44,0,0,1,.163-2.04,1.462,1.462,0,0,1,2.052.163A1.44,1.44,0,0,1,483.151,18.02Z" transform="translate(-480.751 -15.473)" fill="#66a9d7"/></g><g transform="translate(0.162 0.096)"><path d="M483.142,18.009a1.453,1.453,0,0,1-2.038-.161,1.43,1.43,0,0,1,.161-2.026,1.452,1.452,0,0,1,2.038.161A1.431,1.431,0,0,1,483.142,18.009Z" transform="translate(-480.757 -15.479)" fill="#66aad8"/></g><g transform="translate(0.173 0.106)"><path d="M483.13,18a1.441,1.441,0,0,1-2.024-.159,1.421,1.421,0,0,1,.161-2.012,1.441,1.441,0,0,1,2.024.161A1.419,1.419,0,0,1,483.13,18Z" transform="translate(-480.763 -15.484)" fill="#67abd8"/></g><g transform="translate(0.182 0.117)"><path d="M483.12,17.985a1.433,1.433,0,0,1-2.01-.159,1.41,1.41,0,0,1,.159-2,1.433,1.433,0,0,1,2.01.159A1.41,1.41,0,0,1,483.12,17.985Z" transform="translate(-480.768 -15.491)" fill="#67acd8"/></g><g transform="translate(0.193 0.126)"><path d="M483.108,17.972a1.418,1.418,0,0,1-1.995-.158,1.4,1.4,0,0,1,.158-1.983,1.424,1.424,0,0,1,2,.158A1.4,1.4,0,0,1,483.108,17.972Z" transform="translate(-480.774 -15.496)" fill="#68acd9"/></g><g transform="translate(0.202 0.136)"><path d="M483.1,17.961a1.413,1.413,0,0,1-1.982-.156,1.392,1.392,0,0,1,.158-1.97,1.413,1.413,0,0,1,1.981.158A1.39,1.39,0,0,1,483.1,17.961Z" transform="translate(-480.78 -15.502)" fill="#69add9"/></g><g transform="translate(0.213 0.146)"><path d="M483.087,17.95a1.4,1.4,0,0,1-1.969-.156,1.382,1.382,0,0,1,.158-1.955,1.4,1.4,0,0,1,1.967.154A1.383,1.383,0,0,1,483.087,17.95Z" transform="translate(-480.786 -15.507)" fill="#6aaeda"/></g><g transform="translate(0.222 0.157)"><path d="M483.076,17.937a1.392,1.392,0,0,1-1.953-.154,1.367,1.367,0,0,1,.156-1.939A1.388,1.388,0,0,1,483.23,16,1.369,1.369,0,0,1,483.076,17.937Z" transform="translate(-480.791 -15.514)" fill="#6aafdb"/></g><g transform="translate(0.233 0.167)"><path d="M483.065,17.926a1.38,1.38,0,0,1-1.938-.152,1.362,1.362,0,0,1,.152-1.927,1.383,1.383,0,0,1,1.939.152A1.362,1.362,0,0,1,483.065,17.926Z" transform="translate(-480.798 -15.519)" fill="#6ab0db"/></g><g transform="translate(0.243 0.176)"><path d="M483.054,17.913a1.37,1.37,0,0,1-1.924-.151,1.351,1.351,0,0,1,.152-1.913,1.372,1.372,0,0,1,1.925.152A1.351,1.351,0,0,1,483.054,17.913Z" transform="translate(-480.803 -15.525)" fill="#6bb1dc"/></g><g transform="translate(0.253 0.187)"><path d="M483.042,17.9a1.36,1.36,0,0,1-1.91-.151,1.34,1.34,0,0,1,.152-1.9,1.36,1.36,0,0,1,1.91.151A1.338,1.338,0,0,1,483.042,17.9Z" transform="translate(-480.809 -15.531)" fill="#6cb2dc"/></g><g transform="translate(0.262 0.197)"><path d="M483.033,17.889a1.351,1.351,0,0,1-1.9-.149,1.332,1.332,0,0,1,.151-1.884,1.354,1.354,0,0,1,1.9.149A1.331,1.331,0,0,1,483.033,17.889Z" transform="translate(-480.814 -15.537)" fill="#6db2dc"/></g><g transform="translate(0.274 0.207)"><path d="M483.022,17.877a1.342,1.342,0,0,1-1.882-.147,1.325,1.325,0,0,1,.149-1.872,1.343,1.343,0,0,1,1.882.149A1.321,1.321,0,0,1,483.022,17.877Z" transform="translate(-480.821 -15.542)" fill="#6db4dd"/></g><g transform="translate(0.284 0.217)"><path d="M483.01,17.866a1.331,1.331,0,0,1-1.867-.147,1.312,1.312,0,0,1,.147-1.856,1.331,1.331,0,0,1,1.868.147A1.311,1.311,0,0,1,483.01,17.866Z" transform="translate(-480.827 -15.548)" fill="#6db4df"/></g><g transform="translate(0.293 0.227)"><path d="M483,17.853a1.319,1.319,0,0,1-1.853-.145,1.3,1.3,0,0,1,.147-1.842,1.32,1.32,0,0,1,1.853.147A1.3,1.3,0,0,1,483,17.853Z" transform="translate(-480.832 -15.554)" fill="#6eb5df"/></g><g transform="translate(0.303 0.237)"><path d="M482.99,17.842a1.312,1.312,0,0,1-1.841-.145,1.289,1.289,0,0,1,.147-1.827,1.308,1.308,0,0,1,1.839.145A1.291,1.291,0,0,1,482.99,17.842Z" transform="translate(-480.838 -15.56)" fill="#6fb6df"/></g><g transform="translate(0.313 0.247)"><path d="M482.979,17.829a1.3,1.3,0,0,1-1.825-.144,1.28,1.28,0,0,1,.144-1.813,1.3,1.3,0,0,1,1.825.144A1.278,1.278,0,0,1,482.979,17.829Z" transform="translate(-480.844 -15.565)" fill="#70b7e0"/></g><g transform="translate(0.324 0.256)"><path d="M482.968,17.818a1.292,1.292,0,0,1-1.811-.142,1.273,1.273,0,0,1,.144-1.8,1.289,1.289,0,0,1,1.811.142A1.27,1.27,0,0,1,482.968,17.818Z" transform="translate(-480.85 -15.571)" fill="#70b8e1"/></g><g transform="translate(0.334 0.267)"><path d="M482.956,17.807a1.279,1.279,0,0,1-1.8-.142,1.261,1.261,0,0,1,.142-1.785,1.279,1.279,0,0,1,1.8.142A1.259,1.259,0,0,1,482.956,17.807Z" transform="translate(-480.856 -15.577)" fill="#70b9e1"/></g><g transform="translate(0.344 0.277)"><path d="M482.947,17.794a1.271,1.271,0,0,1-1.783-.14,1.252,1.252,0,0,1,.142-1.771,1.27,1.27,0,0,1,1.782.14A1.252,1.252,0,0,1,482.947,17.794Z" transform="translate(-480.862 -15.583)" fill="#71bae2"/></g><g transform="translate(0.354 0.287)"><path d="M482.936,17.783a1.258,1.258,0,0,1-1.768-.14,1.238,1.238,0,0,1,.14-1.756,1.26,1.26,0,0,1,1.768.139A1.243,1.243,0,0,1,482.936,17.783Z" transform="translate(-480.867 -15.589)" fill="#72bbe2"/></g><g transform="translate(0.365 0.296)"><path d="M482.925,17.772a1.251,1.251,0,0,1-1.754-.139,1.232,1.232,0,0,1,.14-1.744,1.25,1.25,0,0,1,1.754.139A1.233,1.233,0,0,1,482.925,17.772Z" transform="translate(-480.874 -15.594)" fill="#73bce3"/></g><g transform="translate(0.374 0.307)"><path d="M482.914,17.759a1.241,1.241,0,0,1-1.74-.137,1.221,1.221,0,0,1,.139-1.728,1.239,1.239,0,0,1,1.74.137A1.22,1.22,0,0,1,482.914,17.759Z" transform="translate(-480.879 -15.6)" fill="#74bde4"/></g><g transform="translate(0.384 0.317)"><path d="M482.9,17.748a1.228,1.228,0,0,1-1.725-.137,1.211,1.211,0,0,1,.137-1.714,1.228,1.228,0,0,1,1.725.137A1.209,1.209,0,0,1,482.9,17.748Z" transform="translate(-480.885 -15.606)" fill="#74bee4"/></g><g transform="translate(0.395 0.328)"><path d="M482.893,17.735a1.22,1.22,0,0,1-1.712-.135,1.2,1.2,0,0,1,.137-1.7,1.218,1.218,0,0,1,1.711.135A1.2,1.2,0,0,1,482.893,17.735Z" transform="translate(-480.891 -15.612)" fill="#74bfe5"/></g><g transform="translate(0.405 0.337)"><path d="M482.881,17.724a1.207,1.207,0,0,1-1.7-.135,1.19,1.19,0,0,1,.135-1.685,1.209,1.209,0,0,1,1.7.133A1.193,1.193,0,0,1,482.881,17.724Z" transform="translate(-480.897 -15.618)" fill="#75bfe5"/></g><g transform="translate(0.414 0.347)"><path d="M482.871,17.711a1.2,1.2,0,0,1-1.683-.132,1.183,1.183,0,0,1,.133-1.673A1.2,1.2,0,0,1,483,16.04,1.179,1.179,0,0,1,482.871,17.711Z" transform="translate(-480.902 -15.623)" fill="#76c1e6"/></g><g transform="translate(0.425 0.357)"><path d="M482.859,17.7a1.189,1.189,0,0,1-1.667-.132,1.17,1.17,0,0,1,.132-1.657,1.189,1.189,0,0,1,1.669.13A1.174,1.174,0,0,1,482.859,17.7Z" transform="translate(-480.909 -15.629)" fill="#77c2e6"/></g><g transform="translate(0.434 0.368)"><path d="M482.848,17.688a1.178,1.178,0,0,1-1.654-.132,1.16,1.16,0,0,1,.132-1.643,1.18,1.18,0,0,1,1.654.13A1.162,1.162,0,0,1,482.848,17.688Z" transform="translate(-480.914 -15.635)" fill="#78c3e7"/></g><g transform="translate(0.445 0.377)"><path d="M482.838,17.676a1.168,1.168,0,0,1-1.64-.13,1.149,1.149,0,0,1,.13-1.628,1.168,1.168,0,0,1,1.64.128A1.152,1.152,0,0,1,482.838,17.676Z" transform="translate(-480.92 -15.641)" fill="#79c3e7"/></g><g transform="translate(0.455 0.387)"><path d="M482.827,17.664a1.159,1.159,0,0,1-1.626-.128,1.142,1.142,0,0,1,.128-1.615,1.159,1.159,0,0,1,1.626.128A1.142,1.142,0,0,1,482.827,17.664Z" transform="translate(-480.925 -15.647)" fill="#78c5e8"/></g><g transform="translate(0.465 0.397)"><path d="M482.816,17.652a1.146,1.146,0,0,1-1.61-.126,1.131,1.131,0,0,1,.126-1.6,1.148,1.148,0,0,1,1.612.128A1.129,1.129,0,0,1,482.816,17.652Z" transform="translate(-480.932 -15.652)" fill="#79c6e9"/></g><g transform="translate(0.475 0.408)"><path d="M482.8,17.64a1.137,1.137,0,0,1-1.6-.126,1.12,1.12,0,0,1,.126-1.586,1.137,1.137,0,0,1,1.6.126A1.119,1.119,0,0,1,482.8,17.64Z" transform="translate(-480.938 -15.659)" fill="#7ac6e9"/></g><g transform="translate(0.486 0.417)"><path d="M482.794,17.629a1.129,1.129,0,0,1-1.583-.126,1.112,1.112,0,0,1,.126-1.572,1.129,1.129,0,0,1,1.583.125A1.112,1.112,0,0,1,482.794,17.629Z" transform="translate(-480.943 -15.664)" fill="#7bc7ea"/></g><g transform="translate(0.496 0.428)"><path d="M482.784,17.616a1.118,1.118,0,0,1-1.569-.123,1.1,1.1,0,0,1,.125-1.558,1.116,1.116,0,0,1,1.567.123A1.1,1.1,0,0,1,482.784,17.616Z" transform="translate(-480.949 -15.67)" fill="#7cc9eb"/></g><g transform="translate(0.505 0.437)"><path d="M482.773,17.605a1.108,1.108,0,0,1-1.555-.123,1.092,1.092,0,0,1,.123-1.544,1.107,1.107,0,0,1,1.555.123A1.09,1.09,0,0,1,482.773,17.605Z" transform="translate(-480.955 -15.676)" fill="#7dcaeb"/></g><g transform="translate(0.515 0.448)"><path d="M482.762,17.592a1.1,1.1,0,0,1-1.539-.121,1.078,1.078,0,0,1,.121-1.529,1.1,1.1,0,0,1,1.541.119A1.081,1.081,0,0,1,482.762,17.592Z" transform="translate(-480.961 -15.682)" fill="#7dcaec"/></g><g transform="translate(0.525 0.457)"><path d="M482.753,17.581a1.087,1.087,0,0,1-1.527-.121,1.069,1.069,0,0,1,.121-1.515,1.086,1.086,0,0,1,1.525.119A1.072,1.072,0,0,1,482.753,17.581Z" transform="translate(-480.966 -15.687)" fill="#7eccec"/></g><g transform="translate(0.536 0.468)"><path d="M482.741,17.568a1.079,1.079,0,0,1-1.513-.118,1.064,1.064,0,0,1,.121-1.5,1.079,1.079,0,0,1,1.512.119A1.06,1.06,0,0,1,482.741,17.568Z" transform="translate(-480.973 -15.693)" fill="#7fcded"/></g></g></g><g transform="translate(2276.027 -111.656)"><path d="M467.534,24.907l3.908,2.912c-.17,0-.352,0-.549,0h-3.359Zm4.95,2.9-4.95-3.688V15.955h4.143v4.092a4.5,4.5,0,0,1,1.557-.313,4.212,4.212,0,0,1,1.6.3,3.713,3.713,0,0,1,1.273.848,3.839,3.839,0,0,1,.826,1.281,4.341,4.341,0,0,1,.294,1.617,3.958,3.958,0,0,1-.409,1.761,3.854,3.854,0,0,1-1.131,1.387,3.7,3.7,0,0,1-1.6.722c-.225.045-.454.08-.689.1s-.521.04-.862.052ZM471.291,25.4h.121a4.727,4.727,0,0,0,1.326-.144,1.155,1.155,0,0,0,.677-.478,1.737,1.737,0,0,0,.206-.913,1.581,1.581,0,0,0-.357-1.082,1.253,1.253,0,0,0-.989-.4,2.268,2.268,0,0,0-.985.26Z" transform="translate(-467.534 -15.955)" fill="#d9372a"/></g><g transform="translate(2286.844 -111.656)"><path d="M483.488,18.367l-3.238-2.412h3.238Zm-4.168-2.318,4.168,3.108v8.668l-3.248.012c-.519.005-1.015,0-1.484-.005a10.542,10.542,0,0,1-1.068-.061c-.241-.031-.462-.069-.663-.114a3.524,3.524,0,0,1-1.248-.459,3.779,3.779,0,0,1-1.474-1.435,3.941,3.941,0,0,1-.521-2.014,4.128,4.128,0,0,1,.545-2.076,3.7,3.7,0,0,1,1.475-1.46,4.441,4.441,0,0,1,2.114-.462,3.312,3.312,0,0,1,1.4.286Zm.39,6.671a1.739,1.739,0,0,0-1-.317,1.247,1.247,0,0,0-.949.41,1.42,1.42,0,0,0-.39,1.022,1.919,1.919,0,0,0,.191.951,1.1,1.1,0,0,0,.656.471,4.721,4.721,0,0,0,1.314.144h.182Z" transform="translate(-473.781 -15.955)" fill="#67a744"/></g></g></svg>